<svg width="512" height="512" viewBox="0 0 512 512" fill="none" xmlns="http://www.w3.org/2000/svg">
<g clip-path="url(#clip0_2441_25014)">
<path d="M256 511.123C397.385 511.123 512 396.704 512 255.562C512 114.419 397.385 0 256 0C114.615 0 0 114.419 0 255.562C0 396.704 114.615 511.123 256 511.123Z" fill="#0F0D30"/>
<path d="M256.03 330.165H203.72C197.613 330.165 191.611 328.537 186.314 325.442C181.017 322.345 176.609 317.89 173.528 312.521C170.447 307.15 168.802 301.051 168.756 294.833C168.71 288.614 170.266 282.491 173.267 277.074L200.197 228.226C201.541 225.795 203.342 223.659 205.498 221.938C207.654 220.217 210.122 218.946 212.761 218.197C215.399 217.448 218.157 217.236 220.876 217.574C223.595 217.912 226.222 218.792 228.606 220.165C230.986 221.542 233.071 223.387 234.743 225.593C236.416 227.799 237.64 230.321 238.345 233.013C239.05 235.705 239.222 238.513 238.851 241.274C238.479 244.034 237.573 246.692 236.182 249.092L214.914 287.295H255.803C261.269 287.429 266.47 289.727 270.299 293.701C274.13 297.674 276.289 303.012 276.318 308.579C276.348 314.147 274.245 319.507 270.458 323.522C266.671 327.539 261.495 329.894 256.03 330.088V330.165Z" fill="#A028FF"/>
<path d="M249.258 330.161H306.336C312.413 330.162 318.384 328.532 323.655 325.434C328.925 322.336 333.311 317.877 336.376 312.503C339.441 307.128 341.078 301.025 341.124 294.801C341.17 288.576 339.623 282.449 336.637 277.027L294.634 287.257H249.409C237.99 287.257 233.562 296.907 233.562 308.487C233.562 320.067 237.613 330.161 249.258 330.161Z" fill="white"/>
<path d="M311.05 229.905L284.377 184.215C281.268 178.873 276.849 174.46 271.559 171.417C266.269 168.375 260.295 166.808 254.231 166.875C248.168 166.942 242.226 168.638 237.001 171.796C231.777 174.953 227.449 179.461 224.453 184.87L197.441 233.84C196.079 236.231 195.196 238.876 194.844 241.622C194.493 244.368 194.68 247.157 195.394 249.828C196.109 252.498 197.336 254.995 199.005 257.171C200.674 259.347 202.75 261.159 205.111 262.501C207.461 263.909 210.062 264.821 212.76 265.185C215.459 265.55 218.201 265.358 220.827 264.621C223.452 263.885 225.907 262.619 228.051 260.897C230.193 259.175 231.98 257.032 233.306 254.594L254.603 216.463L275.279 251.43C278.061 256.297 282.613 259.831 287.935 261.255C293.255 262.678 298.909 261.874 303.653 259.019C308.396 256.166 311.841 251.494 313.228 246.034C314.615 240.575 313.832 234.773 311.05 229.905Z" fill="#FF5B5B"/>
<path d="M214.888 287.257H250.001C255.581 287.231 260.942 289.467 264.906 293.472C268.869 297.477 271.109 302.923 271.135 308.613C271.159 314.302 268.967 319.769 265.039 323.81C261.111 327.851 255.77 330.136 250.19 330.161H203.701C197.597 330.162 191.599 328.532 186.304 325.434C181.01 322.336 176.604 317.877 173.525 312.503C170.446 307.128 168.802 301.025 168.756 294.801C168.71 288.576 170.265 282.449 173.264 277.027L214.888 287.257Z" fill="#A028FF"/>
<path d="M306.519 330.164C312.562 330.164 318.499 328.535 323.741 325.439C328.982 322.342 333.344 317.887 336.391 312.516C339.439 307.145 341.067 301.045 341.112 294.825C341.157 288.606 339.619 282.482 336.65 277.064L310.229 228.536C304.14 218.14 291.679 214.321 281.841 220.146C279.427 221.46 277.298 223.266 275.584 225.454C273.871 227.643 272.608 230.168 271.873 232.875C271.138 235.582 270.947 238.415 271.311 241.2C271.675 243.986 272.587 246.666 273.99 249.077L294.882 287.286" fill="white"/>
<path d="M205.893 78.7376C304.937 52.1986 406.743 110.976 433.282 210.021C451.265 277.134 430.076 345.514 383.729 390.886" stroke="url(#paint0_linear_2441_25014)" stroke-width="23" stroke-linecap="round"/>
<path d="M306.11 433.762C207.065 460.301 105.259 401.524 78.72 302.479C60.7373 235.366 81.9267 166.986 128.273 121.613" stroke="url(#paint1_linear_2441_25014)" stroke-width="23" stroke-linecap="round"/>
</g>
<defs>
<linearGradient id="paint0_linear_2441_25014" x1="385.511" y1="390.409" x2="295.561" y2="54.7111" gradientUnits="userSpaceOnUse">
<stop stop-color="white"/>
<stop offset="1" stop-color="#A028FF" stop-opacity="0"/>
</linearGradient>
<linearGradient id="paint1_linear_2441_25014" x1="126.492" y1="122.09" x2="216.441" y2="457.789" gradientUnits="userSpaceOnUse">
<stop stop-color="white"/>
<stop offset="1" stop-color="#A028FF" stop-opacity="0"/>
</linearGradient>
<clipPath id="clip0_2441_25014">
<rect width="512" height="511.123" fill="white"/>
</clipPath>
</defs>
</svg>
