<svg width="2459" height="435" viewBox="0 0 2459 435" fill="none" xmlns="http://www.w3.org/2000/svg">
<path fill-rule="evenodd" clip-rule="evenodd" d="M780.006 350.95C739.959 350.95 742.375 311.829 742.375 301.085L741.913 334.808C724.219 345.396 703.98 350.975 683.36 350.95C668.697 351.167 654.154 348.279 640.687 342.475C627.22 336.672 615.133 328.085 605.221 317.278C594.969 306.777 586.891 294.355 581.448 280.726C576.005 267.097 573.305 252.528 573.502 237.854C573.597 207.888 585.543 179.177 606.732 157.988C627.921 136.798 656.633 124.852 686.599 124.758C701.448 124.534 716.182 127.392 729.871 133.153C743.559 138.913 755.904 147.45 766.126 158.224C776.885 168.478 785.411 180.844 791.17 194.546C796.929 208.248 799.796 222.992 799.592 237.854V350.95H780.006ZM648.814 275.535C643.813 270.636 639.865 264.766 637.213 258.286C634.561 251.807 633.261 244.854 633.392 237.854C633.282 230.948 634.594 224.094 637.247 217.717C639.901 211.341 643.838 205.578 648.814 200.789C656.277 193.407 665.741 188.375 676.034 186.316C686.328 184.258 696.999 185.263 706.726 189.208C716.454 193.153 724.812 199.864 730.764 208.51C736.717 217.157 740.003 227.359 740.216 237.854C740.576 253.533 740.216 274.199 740.216 283.452C723.448 290.973 705.088 294.256 686.753 293.014C672.48 291.698 659.089 285.529 648.814 275.535V275.535Z" fill="#0F0D30"/>
<path fill-rule="evenodd" clip-rule="evenodd" d="M1072.46 411.508V237.854C1072.25 223.067 1075.06 208.392 1080.73 194.733C1086.39 181.074 1094.8 168.719 1105.42 158.429C1115.78 147.691 1128.24 139.184 1142.01 133.429C1155.78 127.674 1170.58 124.794 1185.51 124.963C1200.29 124.748 1214.95 127.618 1228.55 133.389C1242.16 139.161 1254.41 147.706 1264.52 158.481C1275.25 168.705 1283.76 181.029 1289.52 194.685C1295.27 208.34 1298.16 223.035 1297.99 237.854C1298.17 252.487 1295.46 267.011 1290.01 280.596C1284.57 294.181 1276.5 306.558 1266.27 317.021C1256.45 327.831 1244.45 336.443 1231.06 342.29C1217.67 348.137 1203.2 351.088 1188.59 350.95C1174.4 351.686 1160.31 348.101 1148.19 340.668C1144.43 338.694 1140.97 336.202 1137.91 333.266C1135.49 330.747 1133.33 318.975 1132.2 308.076V362.465C1132.21 368.918 1130.95 375.31 1128.48 381.273C1126.02 387.236 1122.4 392.652 1117.83 397.21C1113.26 401.768 1107.84 405.378 1101.87 407.832C1095.9 410.286 1089.51 411.535 1083.05 411.508H1072.46ZM1147.78 275.535C1142.8 270.66 1138.87 264.823 1136.22 258.381C1133.57 251.939 1132.25 245.025 1132.35 238.059C1132.24 231.154 1133.56 224.299 1136.21 217.923C1138.86 211.546 1142.8 205.784 1147.78 200.995C1152.61 195.866 1158.45 191.798 1164.94 189.045C1171.43 186.293 1178.41 184.918 1185.46 185.007C1192.39 184.881 1199.27 186.227 1205.64 188.957C1212.01 191.686 1217.73 195.737 1222.42 200.84V200.84C1227.48 205.644 1231.52 211.427 1234.27 217.839C1237.03 224.251 1238.45 231.157 1238.45 238.136C1238.45 245.116 1237.03 252.021 1234.27 258.434C1231.52 264.846 1227.48 270.629 1222.42 275.433C1217.59 280.364 1211.81 284.272 1205.43 286.921C1199.05 289.571 1192.21 290.909 1185.3 290.855C1178.35 290.919 1171.44 289.598 1165 286.968C1158.56 284.338 1152.7 280.451 1147.78 275.535V275.535Z" fill="#0F0D30"/>
<path fill-rule="evenodd" clip-rule="evenodd" d="M1319.89 350.384V67.644H1330.68C1337.14 67.6169 1343.53 68.8661 1349.5 71.3199C1355.47 73.7736 1360.89 77.3834 1365.46 81.9415C1370.03 86.4996 1373.65 91.9159 1376.11 97.8789C1378.58 103.842 1379.84 110.234 1379.83 116.687V350.384H1319.89Z" fill="#0F0D30"/>
<path fill-rule="evenodd" clip-rule="evenodd" d="M1685.34 92.9879C1675.76 101.388 1668.08 111.735 1662.81 123.339C1657.55 134.944 1654.82 147.537 1654.8 160.28H1638.82V220.118H1654.8V347.197H1714.69V220.118H1746.67V160.28H1714.75C1714.7 155.579 1715.69 150.925 1717.63 146.644C1719.58 142.364 1722.43 138.561 1726 135.502C1733.87 128.165 1744.29 124.183 1755.05 124.398H1765.84V64.5596H1755.05C1742.13 64.4512 1729.31 66.9081 1717.35 71.788C1705.38 76.6678 1694.5 83.8736 1685.34 92.9879Z" fill="#0F0D30"/>
<path fill-rule="evenodd" clip-rule="evenodd" d="M1788.72 347.197V64.457H1799.52C1805.97 64.4298 1812.37 65.6791 1818.33 68.1328C1824.3 70.5866 1829.73 74.1964 1834.29 78.7545C1838.86 83.3125 1842.48 88.7289 1844.95 94.6919C1847.41 100.655 1848.68 107.047 1848.66 113.5V347.197H1788.72Z" fill="#0F0D30"/>
<path fill-rule="evenodd" clip-rule="evenodd" d="M2067.04 317.484C2045.75 338.555 2017 350.374 1987.05 350.374C1957.09 350.374 1928.35 338.555 1907.06 317.484C1896.44 307.142 1888.04 294.751 1882.36 281.063C1876.67 267.374 1873.83 252.674 1874 237.854C1873.78 223.062 1876.6 208.383 1882.28 194.722C1887.95 181.061 1896.37 168.709 1907.01 158.43C1917.47 147.834 1929.92 139.421 1943.66 133.679C1957.4 127.937 1972.14 124.98 1987.02 124.98C2001.91 124.98 2016.65 127.937 2030.39 133.679C2044.12 139.421 2056.58 147.834 2067.04 158.43C2077.66 168.754 2086.1 181.102 2091.86 194.744C2097.62 208.386 2100.59 223.045 2100.59 237.854C2100.59 252.663 2097.62 267.322 2091.86 280.964C2086.1 294.606 2077.66 306.954 2067.04 317.278V317.484ZM1986.53 291.06C1993.53 291.184 2000.47 289.88 2006.94 287.229C2013.41 284.577 2019.27 280.633 2024.17 275.638C2030.25 269.456 2034.72 261.876 2037.18 253.564C2039.65 245.252 2040.04 236.461 2038.33 227.962C2036.61 219.463 2032.83 211.516 2027.32 204.817C2021.81 198.119 2014.75 192.874 2006.74 189.542C1998.74 186.21 1990.04 184.893 1981.4 185.707C1972.77 186.521 1964.47 189.44 1957.23 194.209C1949.99 198.978 1944.02 205.451 1939.87 213.061C1935.71 220.67 1933.48 229.183 1933.38 237.854C1933.28 244.82 1934.59 251.733 1937.24 258.176C1939.89 264.618 1943.83 270.454 1948.8 275.33C1953.72 280.347 1959.59 284.326 1966.07 287.028C1972.55 289.73 1979.51 291.102 1986.53 291.06V291.06Z" fill="#0F0D30"/>
<path fill-rule="evenodd" clip-rule="evenodd" d="M1503.93 276.666L1533.02 192.461L1552.56 139.254L1555.02 129.487H1619.28L1585.3 223.151L1517.29 412.125H1509.74C1503.41 412.129 1497.19 410.605 1491.58 407.681C1485.98 404.757 1481.17 400.521 1477.56 395.334C1473.95 390.147 1471.64 384.164 1470.85 377.894C1470.05 371.624 1470.78 365.255 1472.98 359.329V359.329L1480.48 339.897L1394.22 128.973H1457.87L1504.49 236.928C1506.83 241.547 1507.81 246.734 1507.32 251.888L1503.93 276.666Z" fill="#0F0D30"/>
<path fill-rule="evenodd" clip-rule="evenodd" d="M2457.53 129.59H2399.69C2399.38 129.59 2399.08 129.715 2398.86 129.936C2398.64 130.158 2398.51 130.459 2398.51 130.772V256.309C2398.83 261.363 2398.13 266.429 2396.45 271.207C2394.77 275.984 2392.15 280.376 2388.74 284.121C2385.62 287.455 2381.77 290.023 2377.49 291.626C2366.68 294.573 2355.29 294.573 2344.48 291.626C2340.18 290.037 2336.31 287.467 2333.17 284.121C2329.77 280.372 2327.16 275.978 2325.49 271.201C2323.82 266.423 2323.13 261.359 2323.46 256.309V130.772C2323.46 130.459 2323.33 130.158 2323.11 129.936C2322.89 129.715 2322.59 129.59 2322.27 129.59H2264.34C2264.02 129.59 2263.72 129.715 2263.5 129.936C2263.28 130.158 2263.16 130.459 2263.16 130.772V256.309C2263.48 261.359 2262.79 266.423 2261.12 271.201C2259.45 275.978 2256.84 280.372 2253.44 284.121C2250.3 287.467 2246.43 290.037 2242.13 291.626C2231.33 294.573 2219.93 294.573 2209.13 291.626C2204.85 290.023 2200.99 287.455 2197.87 284.121C2194.46 280.376 2191.84 275.984 2190.16 271.207C2188.48 266.429 2187.78 261.363 2188.1 256.309V130.772C2188.1 130.459 2187.98 130.158 2187.75 129.936C2187.53 129.715 2187.23 129.59 2186.92 129.59H2129.34C2129.19 129.59 2129.03 129.621 2128.89 129.68C2128.75 129.74 2128.62 129.827 2128.51 129.936C2128.4 130.046 2128.31 130.177 2128.25 130.32C2128.19 130.463 2128.16 130.617 2128.16 130.772V256.309C2128.16 280.831 2135.25 306.946 2157.82 325.761C2178.39 342.776 2199.92 354.035 2225.89 354.035C2251.85 354.035 2273.28 342.931 2293.59 326.12C2313.84 342.931 2335.43 354.035 2361.24 354.035C2387.05 354.035 2408.9 342.776 2429.3 325.761C2451.87 306.946 2458.97 280.831 2458.97 256.309V130.772C2458.97 130.593 2458.93 130.415 2458.86 130.252C2458.78 130.089 2458.67 129.944 2458.53 129.831C2458.4 129.717 2458.23 129.636 2458.06 129.594C2457.88 129.552 2457.7 129.551 2457.53 129.59Z" fill="#0F0D30"/>
<path fill-rule="evenodd" clip-rule="evenodd" d="M824.989 411.508V237.854C824.769 223.062 827.584 208.383 833.26 194.722C838.937 181.061 847.354 168.709 857.992 158.429C868.35 147.693 880.793 139.186 894.557 133.431C908.321 127.676 923.116 124.795 938.033 124.963C952.818 124.747 967.485 127.617 981.099 133.388C994.712 139.159 1006.97 147.705 1017.1 158.481C1027.83 168.705 1036.33 181.029 1042.09 194.685C1047.85 208.34 1050.73 223.035 1050.56 237.854C1050.77 252.512 1048.08 267.068 1042.66 280.687C1037.23 294.306 1029.18 306.723 1018.95 317.227C1009.1 328.001 997.078 336.574 983.684 342.385C970.29 348.197 955.82 351.115 941.221 350.95C926.989 351.697 912.864 348.112 900.712 340.669C896.972 338.667 893.514 336.178 890.43 333.266C888.014 330.747 885.855 318.975 884.724 308.076V362.465C884.744 368.916 883.488 375.306 881.027 381.269C878.567 387.232 874.95 392.649 870.387 397.207C865.823 401.766 860.403 405.377 854.437 407.831C848.472 410.285 842.08 411.535 835.63 411.508H824.989ZM900.3 275.535C895.325 270.66 891.392 264.823 888.741 258.381C886.089 251.939 884.775 245.025 884.878 238.059C885.052 224.025 890.711 210.617 900.645 200.702C910.579 190.787 923.999 185.154 938.033 185.007C944.964 184.881 951.842 186.227 958.214 188.957C964.585 191.686 970.305 195.737 974.995 200.84V200.84C980.058 205.644 984.091 211.427 986.846 217.839C989.602 224.252 991.023 231.157 991.023 238.137C991.023 245.116 989.602 252.022 986.846 258.434C984.091 264.846 980.058 270.629 974.995 275.433C970.161 280.364 964.384 284.272 958.007 286.921C951.63 289.571 944.784 290.909 937.879 290.855C930.912 290.926 924 289.608 917.548 286.978C911.095 284.348 905.232 280.458 900.3 275.535V275.535Z" fill="#0F0D30"/>
<path d="M237.863 434.384H95.8763C79.2977 434.386 63.0079 430.044 48.6291 421.792C34.2504 413.539 22.2844 401.664 13.9229 387.349C5.5613 373.033 1.09593 356.777 0.971427 340.199C0.846925 323.621 5.06764 307.299 13.2132 292.86L86.3145 162.645C89.9614 156.165 94.8504 150.469 100.702 145.881C106.553 141.293 113.251 137.904 120.414 135.908C127.576 133.912 135.062 133.349 142.442 134.249C149.823 135.15 156.953 137.497 163.426 141.156C169.883 144.826 175.546 149.744 180.084 155.624C184.623 161.504 187.945 168.228 189.859 175.405C191.773 182.581 192.24 190.067 191.232 197.426C190.224 204.785 187.762 211.87 183.989 218.267L126.258 320.105H237.247C252.084 320.463 266.199 326.588 276.595 337.181C286.992 347.774 292.852 362.001 292.932 376.842C293.012 391.684 287.306 405.974 277.025 416.678C266.744 427.383 252.697 433.66 237.863 434.178V434.384Z" fill="#A028FF"/>
<path d="M219.357 434.384H375.07C391.649 434.386 407.939 430.044 422.318 421.792C436.696 413.54 448.662 401.664 457.024 387.349C465.385 373.033 469.851 356.777 469.975 340.199C470.1 323.621 465.879 307.299 457.733 292.86L343.146 320.106H219.769C188.616 320.106 176.535 345.809 176.535 376.654C176.535 407.498 187.588 434.384 219.357 434.384Z" fill="#0F0D30"/>
<path d="M387.922 168.197L314.975 46.4128C306.472 32.1737 294.385 20.4128 279.919 12.3034C265.452 4.19395 249.112 0.0194513 232.529 0.196313C215.946 0.373175 199.698 4.89521 185.408 13.3113C171.118 21.7274 159.284 33.7434 151.088 48.1606L77.2155 178.684C73.489 185.055 71.074 192.107 70.1125 199.425C69.1509 206.743 69.6623 214.179 71.6165 221.296C73.5706 228.414 76.9282 235.068 81.4916 240.869C86.0551 246.67 91.7324 251.5 98.1897 255.075C104.618 258.828 111.731 261.26 119.111 262.231C126.491 263.201 133.99 262.69 141.171 260.728C148.351 258.765 155.068 255.39 160.928 250.801C166.788 246.211 171.675 240.499 175.301 233.998L233.545 132.366L290.093 225.567C297.701 238.54 310.151 247.96 324.704 251.753C339.256 255.547 354.72 253.404 367.693 245.796C380.666 238.188 390.085 225.739 393.879 211.186C397.672 196.633 395.529 181.17 387.922 168.197V168.197Z" fill="#FF5B5B"/>
<path d="M126.258 320.106H221.619C236.773 320.037 251.334 325.992 262.098 336.66C272.861 347.327 278.947 361.834 279.015 376.988C279.083 392.142 273.129 406.703 262.461 417.467C251.794 428.231 237.287 434.316 222.133 434.384H95.8763C79.2977 434.386 63.0079 430.044 48.6291 421.792C34.2504 413.54 22.2844 401.664 13.9229 387.349C5.5613 373.033 1.09593 356.777 0.971427 340.199C0.846925 323.621 5.06763 307.299 13.2132 292.86L126.258 320.106Z" fill="#A028FF"/>
<path d="M375.068 434.384C391.647 434.386 407.936 430.044 422.315 421.792C436.694 413.54 448.66 401.664 457.022 387.349C465.383 373.033 469.848 356.777 469.973 340.199C470.097 323.621 465.877 307.299 457.731 292.86L385.247 163.519C368.539 135.81 334.353 125.632 307.365 141.157C300.741 144.658 294.901 149.472 290.199 155.304C285.498 161.137 282.034 167.866 280.018 175.082C278.003 182.297 277.478 189.848 278.476 197.272C279.475 204.697 281.975 211.841 285.825 218.268L343.144 320.106" fill="#0F0D30"/>
</svg>
