<svg width="512" height="512" viewBox="0 0 512 512" fill="none" xmlns="http://www.w3.org/2000/svg">
<g clip-path="url(#clip0_2439_25023)">
<path d="M258.61 492.994H103.607C85.5089 492.996 67.7259 488.257 52.0292 479.248C36.3324 470.239 23.2696 457.275 14.1415 441.647C5.01352 426.02 0.138837 408.273 0.00292207 390.175C-0.132992 372.078 4.47461 354.26 13.3669 338.497L93.1689 196.346C97.1502 189.273 102.487 183.054 108.875 178.045C115.262 173.037 122.575 169.338 130.394 167.159C138.213 164.98 146.384 164.364 154.442 165.348C162.499 166.331 170.283 168.893 177.348 172.888C184.398 176.894 190.58 182.263 195.534 188.682C200.488 195.101 204.116 202.441 206.205 210.276C208.294 218.11 208.804 226.282 207.703 234.316C206.603 242.349 203.915 250.083 199.796 257.067L136.774 368.24H257.936C274.134 368.631 289.542 375.318 300.892 386.881C312.241 398.445 318.638 413.976 318.726 430.178C318.813 446.381 312.585 461.98 301.361 473.665C290.137 485.351 274.802 492.204 258.61 492.77V492.994Z" fill="#A028FF"/>
<path d="M238.408 492.993H408.394C426.492 492.995 444.275 488.256 459.972 479.247C475.669 470.238 488.732 457.274 497.86 441.647C506.988 426.019 511.862 408.272 511.998 390.175C512.134 372.077 507.527 354.259 498.634 338.496L373.544 368.239H238.857C204.848 368.239 191.66 396.299 191.66 429.971C191.66 463.643 203.726 492.993 238.408 492.993Z" fill="#0F0D30"/>
<path d="M422.421 202.406L342.787 69.4587C333.506 53.9144 320.31 41.0755 304.518 32.2227C288.725 23.37 270.888 18.8128 252.784 19.0059C234.681 19.199 216.944 24.1355 201.344 33.3231C185.744 42.5107 172.826 55.6281 163.878 71.3668L83.234 213.854C79.166 220.809 76.5296 228.508 75.4799 236.496C74.4303 244.485 74.9885 252.603 77.1218 260.373C79.2551 268.143 82.9204 275.407 87.9022 281.74C92.884 288.073 99.0817 293.346 106.131 297.248C113.149 301.344 120.913 304 128.97 305.06C137.026 306.119 145.213 305.561 153.052 303.419C160.89 301.276 168.223 297.592 174.62 292.582C181.018 287.571 186.352 281.336 190.31 274.239L253.894 163.291L315.625 265.036C323.93 279.198 337.521 289.48 353.408 293.622C369.295 297.763 386.176 295.424 400.338 287.119C414.5 278.813 424.783 265.223 428.924 249.336C433.065 233.449 430.726 216.568 422.421 202.406Z" fill="#FF5B5B"/>
<path d="M136.774 368.239H240.876C257.419 368.165 273.314 374.666 285.065 386.311C296.816 397.956 303.459 413.792 303.533 430.336C303.608 446.879 297.107 462.775 285.462 474.525C273.817 486.276 257.98 492.919 241.437 492.993H103.607C85.5089 492.995 67.7259 488.256 52.0292 479.247C36.3324 470.238 23.2696 457.274 14.1415 441.647C5.01352 426.019 0.138837 408.272 0.00292207 390.175C-0.132992 372.077 4.47461 354.259 13.3669 338.496L136.774 368.239Z" fill="#A028FF"/>
<path d="M408.393 492.992C426.491 492.994 444.274 488.255 459.971 479.246C475.668 470.237 488.731 457.273 497.859 441.646C506.987 426.018 511.861 408.271 511.997 390.174C512.133 372.076 507.526 354.258 498.633 338.495L419.505 197.298C401.266 167.05 363.946 155.938 334.484 172.886C327.253 176.709 320.877 181.964 315.745 188.331C310.612 194.698 306.831 202.044 304.63 209.921C302.43 217.798 301.857 226.04 302.947 234.146C304.037 242.251 306.767 250.05 310.969 257.066L373.543 368.239" fill="#0F0D30"/>
</g>
<defs>
<clipPath id="clip0_2439_25023">
<rect width="512" height="474" fill="white" transform="translate(0 19)"/>
</clipPath>
</defs>
</svg>
